# xmcd
#
# Track frame offsets: 
#        150
#        21453
#        46202
#        63287
#        83062
#        104222
#        123413
#        147294
#        167980
#        183762
#        203325
#
# Disc length: 2903 seconds
#
# Revision: 0
# Processed by: cddbd v1.5.2PL0 Copyright (c) Steve Scherf et al.
# Submitted via: ExactAudioCopy v0.99pb4
#
DISCID=950b550b
DTITLE=Colin James - Bad Habits
DYEAR=1995
DGENRE=
TTITLE0=Saviour 
TTITLE1=Freedom 
TTITLE2=Standin' On The Edge 
TTITLE3=Real Stuff 
TTITLE4=Better Days 
TTITLE5=I Can't Hold Out 
TTITLE6=Bad Habits 
TTITLE7=Forty- Four 
TTITLE8=Walkin' Blues 
TTITLE9=Atlanta Moan 
TTITLE10=Speechless
EXTD=
EXTT0=
EXTT1=
EXTT2=
EXTT3=
EXTT4=
EXTT5=
EXTT6=
EXTT7=
EXTT8=
EXTT9=
EXTT10=
PLAYORDER=
